<svg width="16" height="16" viewBox="0 0 16 16" fill="none" xmlns="http://www.w3.org/2000/svg">
<path fill-rule="evenodd" clip-rule="evenodd" d="M8 10.122L13.303 15.425C13.5844 15.7064 13.966 15.8645 14.364 15.8645C14.762 15.8645 15.1436 15.7064 15.425 15.425C15.7064 15.1436 15.8645 14.7619 15.8645 14.364C15.8645 13.966 15.7064 13.5844 15.425 13.303L10.12 7.99999L15.424 2.69699C15.5633 2.55766 15.6737 2.39226 15.7491 2.21024C15.8244 2.02821 15.8632 1.83313 15.8631 1.63613C15.8631 1.43914 15.8242 1.24407 15.7488 1.06209C15.6734 0.880101 15.5628 0.714755 15.4235 0.575488C15.2842 0.436221 15.1188 0.325762 14.9367 0.250416C14.7547 0.175071 14.5596 0.136315 14.3626 0.136361C14.1656 0.136408 13.9706 0.175255 13.7886 0.250687C13.6066 0.326118 13.4413 0.436656 13.302 0.575988L8 5.87899L2.697 0.575988C2.5587 0.432659 2.39323 0.318309 2.21027 0.239611C2.0273 0.160912 1.83049 0.119441 1.63132 0.117617C1.43215 0.115793 1.23462 0.153652 1.05024 0.228987C0.865859 0.304321 0.698329 0.415622 0.557424 0.556394C0.416519 0.697166 0.305061 0.864591 0.229553 1.0489C0.154045 1.23321 0.115999 1.43071 0.117635 1.62988C0.119271 1.82905 0.160556 2.02589 0.239082 2.20894C0.317608 2.39198 0.431802 2.55755 0.575001 2.69599L5.88 7.99999L0.576001 13.304C0.432803 13.4424 0.318609 13.608 0.240083 13.791C0.161557 13.9741 0.120271 14.1709 0.118635 14.3701C0.116999 14.5693 0.155045 14.7668 0.230553 14.9511C0.306061 15.1354 0.417519 15.3028 0.558424 15.4436C0.699329 15.5844 0.866858 15.6957 1.05124 15.771C1.23562 15.8463 1.43315 15.8842 1.63232 15.8824C1.83149 15.8805 2.0283 15.8391 2.21127 15.7604C2.39423 15.6817 2.5597 15.5673 2.698 15.424L8 10.122Z" fill="#0A5FB2"/>
</svg>
