<svg width="254" height="57" viewBox="0 0 254 57" fill="none" xmlns="http://www.w3.org/2000/svg">
<path d="M23.5825 8.66C26.7025 7.88 29.0725 6.92 30.7525 5.72C32.4025 4.58 33.3325 3.44 33.5425 2.33L33.6025 1.79H39.2125V2.12C39.1225 2.9 38.9125 3.62 38.6125 4.31C40.1425 4.76 41.6125 5.3 43.0225 5.93C44.6725 6.71 46.3525 7.7 48.0625 8.9L45.3925 12.47C43.7725 11.27 42.1825 10.31 40.6825 9.59C39.1825 8.93 37.5625 8.33 35.8525 7.88C35.6725 8 35.5225 8.15 35.3425 8.3C33.0025 10.16 29.7625 11.57 25.6225 12.47L23.5825 8.66ZM33.4225 20.42V18.02H23.1625V13.67H47.9725V18.02H39.2125V20.42H33.4225ZM29.7325 19.16V21.41H46.9825V25.76H24.4825V19.16H29.7325ZM48.892 21.05C50.092 19.58 51.082 18.2 51.892 16.88C52.672 15.62 53.302 14.27 53.782 12.83C54.262 11.45 54.592 9.89 54.772 8.18C54.952 6.5 55.012 4.52 55.012 2.24H60.322C60.322 5 60.202 7.4 59.992 9.44C59.872 10.52 59.692 11.51 59.482 12.47C60.832 13.82 62.002 15.14 63.022 16.43C64.102 17.87 65.062 19.37 65.902 20.93L62.122 24.32C61.672 23.48 61.222 22.67 60.742 21.92C60.262 21.2 59.752 20.51 59.212 19.82C58.702 19.22 58.162 18.56 57.652 17.96C57.322 18.65 56.962 19.31 56.572 19.94C55.612 21.47 54.412 23.03 52.972 24.65L48.892 21.05ZM68.092 13.79C67.552 13.85 67.072 13.91 66.712 13.91C66.292 13.97 65.692 13.97 64.852 13.97H63.532V9.17H68.092V1.7H73.342V25.88H68.092V13.79ZM88.4055 2.24V6.74H82.0455V20.09H85.1055C85.8255 20.09 86.5455 20.06 87.2655 19.94C87.9555 19.88 88.5555 19.76 89.0355 19.58V23.87C88.5855 24.17 87.9855 24.35 87.2655 24.44C86.4855 24.56 85.7355 24.59 84.9855 24.59H76.7955V2.24H88.4055ZM96.6855 15.41C96.1755 15.53 95.6055 15.65 95.0055 15.68V25.97H90.2355V1.7H95.0055V10.58H96.6855V1.7H101.426V25.97H96.6855V15.41ZM105.166 7.7H122.056V6.2H105.316V1.7H127.156V12.2H110.266V13.73H127.606V18.23H118.966V20.99H128.656V25.49H103.846V20.99H113.536V18.23H105.166V7.7ZM160.986 6.23H155.586V10.1H158.376C159.156 10.1 159.816 10.1 160.326 10.07C160.806 10.07 161.256 10.01 161.646 9.92V14.18C161.286 14.3 160.806 14.39 160.206 14.39C159.576 14.45 158.946 14.45 158.286 14.45H150.336V1.88H160.986V6.23ZM149.286 14.45H139.236V1.88H149.376V6.23H144.336V10.1H149.286V14.45ZM147.396 25.88V20.81H138.036V16.01H162.846V20.81H153.186V25.88H147.396ZM172.495 1.94V4.25C172.555 6.59 172.285 8.69 171.685 10.52C171.055 12.38 170.095 13.97 168.835 15.35L164.365 13.16C165.385 12.14 166.195 11.06 166.735 9.89C167.245 8.75 167.545 7.61 167.605 6.44H164.665V1.94H172.495ZM180.745 1.94V4.25C180.745 5 180.715 5.72 180.685 6.41H181.885C182.185 6.41 182.455 6.41 182.755 6.38C183.025 6.38 183.235 6.32 183.415 6.26V1.7H188.665V15.26H183.415V10.61C183.175 10.73 182.815 10.79 182.365 10.82C181.885 10.88 181.405 10.88 180.925 10.88L180.085 10.91C179.635 12.56 178.885 14.12 177.775 15.56L173.095 13.46C173.995 12.32 174.685 11.15 175.105 9.98C175.495 8.84 175.705 7.67 175.705 6.44H173.365V1.94H180.745ZM178.405 22.73C179.365 22.73 180.145 22.7 180.775 22.64C181.375 22.58 181.885 22.49 182.245 22.37C182.605 22.25 182.845 22.1 182.995 21.92C183.115 21.74 183.205 21.53 183.205 21.29C183.205 21.08 183.115 20.87 182.995 20.69C182.845 20.51 182.605 20.36 182.245 20.24C181.885 20.12 181.375 20.03 180.775 19.94C180.145 19.88 179.365 19.85 178.405 19.85C177.415 19.85 176.605 19.88 176.005 19.94C175.375 20.03 174.895 20.12 174.535 20.24C174.175 20.36 173.935 20.51 173.815 20.69C173.665 20.87 173.605 21.08 173.605 21.29C173.605 21.53 173.665 21.74 173.815 21.92C173.935 22.1 174.175 22.25 174.535 22.37C174.895 22.49 175.375 22.58 176.005 22.64C176.605 22.7 177.415 22.73 178.405 22.73ZM178.405 26.75C176.335 26.75 174.625 26.6 173.275 26.36C171.895 26.09 170.785 25.73 169.975 25.25C169.135 24.77 168.565 24.2 168.235 23.51C167.875 22.85 167.725 22.13 167.725 21.29C167.725 20.54 167.905 19.82 168.265 19.16C168.595 18.5 169.165 17.93 170.005 17.42C170.815 16.94 171.925 16.55 173.305 16.25C174.655 15.98 176.365 15.83 178.405 15.83C180.415 15.83 182.125 15.98 183.505 16.25C184.855 16.55 185.935 16.94 186.775 17.42C187.585 17.93 188.185 18.5 188.545 19.16C188.905 19.82 189.085 20.54 189.085 21.29C189.085 22.13 188.905 22.85 188.575 23.51C188.215 24.2 187.615 24.77 186.805 25.25C185.965 25.73 184.885 26.09 183.535 26.36C182.155 26.6 180.445 26.75 178.405 26.75ZM211.218 6.44C212.298 6.44 213.168 6.44 213.888 6.38C214.548 6.35 215.088 6.29 215.508 6.2C215.868 6.11 216.138 5.99 216.318 5.84C216.468 5.72 216.558 5.54 216.558 5.33C216.558 5.15 216.468 5 216.348 4.85C216.168 4.73 215.898 4.61 215.508 4.52C215.088 4.43 214.548 4.34 213.888 4.28C213.168 4.25 212.298 4.22 211.218 4.22C210.108 4.22 209.208 4.25 208.548 4.28C207.828 4.34 207.288 4.43 206.898 4.52C206.478 4.61 206.208 4.73 206.088 4.85C205.938 5 205.878 5.15 205.878 5.33C205.878 5.54 205.938 5.72 206.118 5.84C206.238 5.99 206.508 6.11 206.928 6.2C207.288 6.29 207.828 6.35 208.548 6.38C209.238 6.44 210.138 6.44 211.218 6.44ZM211.218 9.8C208.938 9.8 207.108 9.68 205.698 9.44C204.258 9.2 203.148 8.9 202.368 8.48C201.558 8.09 201.018 7.64 200.748 7.1C200.448 6.59 200.298 6.05 200.298 5.48C200.298 4.88 200.448 4.28 200.748 3.71C201.018 3.17 201.558 2.66 202.368 2.24C203.148 1.82 204.258 1.49 205.698 1.22C207.108 0.979998 208.938 0.859998 211.218 0.859998C213.438 0.859998 215.268 0.979998 216.708 1.22C218.118 1.49 219.228 1.82 220.038 2.24C220.818 2.66 221.388 3.17 221.688 3.71C221.988 4.28 222.138 4.88 222.138 5.48C222.108 6.05 221.958 6.59 221.688 7.1C221.388 7.64 220.818 8.09 220.038 8.48C219.228 8.9 218.118 9.2 216.708 9.44C215.268 9.68 213.438 9.8 211.218 9.8ZM223.578 14.15H198.768V10.55H223.578V14.15ZM199.998 18.86H217.068V18.08H199.998V14.96H222.168V21.98H205.098V22.7H222.708V25.91H199.998V18.86ZM13.14 37.59H5.45996V41.94H12.69V46.59H5.45996V50.91H10.29C11.16 50.91 11.97 50.88 12.75 50.79C13.47 50.73 14.04 50.64 14.43 50.49V54.96C14.01 55.2 13.41 55.35 12.63 55.41C11.82 55.53 10.92 55.56 9.89996 55.56H0.359961V32.94H13.14V37.59ZM17.76 46.05C17.46 46.14 17.04 46.2 16.5 46.2C15.93 46.23 15.33 46.23 14.73 46.23H14.31V41.43H17.76V32.7H23.01V56.88H17.76V46.05ZM39.2435 35.34V37.95C39.1835 39.81 38.8535 41.58 38.3135 43.26C37.9535 44.31 37.5335 45.33 37.0535 46.32C37.6835 46.8 38.2535 47.31 38.8235 47.82C39.9635 48.96 41.0435 50.25 42.0035 51.75L38.5235 55.47C37.4735 53.82 36.3935 52.47 35.2835 51.45L34.2935 50.64C33.8135 51.21 33.3035 51.78 32.7935 52.32C31.5335 53.64 30.1835 54.75 28.7435 55.71L25.2635 51.96C27.6335 50.22 29.5235 48.33 30.9635 46.32C32.3435 44.34 33.2435 42.3 33.6035 40.14H26.4635V35.34H29.8235V32.1H35.3735V35.34H39.2435ZM42.9635 56.85V32.7H48.5135V56.85H42.9635ZM64.0375 40.02H51.5275V35.55H55.4575V31.95H60.1075V35.55H64.0375V40.02ZM57.8275 51.57C58.2475 51.57 58.5775 51.33 58.8775 50.82C59.1175 50.34 59.2675 49.56 59.2675 48.48C59.2675 47.46 59.1175 46.68 58.8775 46.14C58.5775 45.66 58.2475 45.39 57.8275 45.39C57.3775 45.39 57.0175 45.66 56.7775 46.14C56.5075 46.68 56.3875 47.46 56.3875 48.48C56.3875 49.56 56.5075 50.34 56.8075 50.82C57.0475 51.33 57.4075 51.57 57.8275 51.57ZM57.8275 56.07C55.8475 56.07 54.3175 55.47 53.2975 54.24C52.2475 53.04 51.7375 51.12 51.7375 48.48C51.7375 45.96 52.2775 44.07 53.3875 42.78C54.4675 41.52 55.9675 40.89 57.8275 40.89C59.6875 40.89 61.1575 41.52 62.2675 42.78C63.3475 44.07 63.9175 45.96 63.9175 48.48C63.9175 51.12 63.3775 53.04 62.3575 54.24C61.2775 55.47 59.7775 56.07 57.8275 56.07ZM72.0175 45.81C71.5075 45.93 70.9375 46.05 70.3375 46.08V56.97H65.5675V32.7H70.3375V40.98H72.0175V32.7H76.7575V56.97H72.0175V45.81ZM78.2182 52.05C79.4182 50.58 80.4082 49.2 81.2182 47.88C81.9982 46.62 82.6282 45.27 83.1082 43.83C83.5882 42.45 83.9182 40.89 84.0982 39.18C84.2782 37.5 84.3382 35.52 84.3382 33.24H89.6482C89.6482 36 89.5282 38.4 89.3182 40.44C89.1982 41.52 89.0182 42.51 88.8082 43.47C90.1582 44.82 91.3282 46.14 92.3482 47.43C93.4282 48.87 94.3882 50.37 95.2282 51.93L91.4482 55.32C90.9982 54.48 90.5482 53.67 90.0682 52.92C89.5882 52.2 89.0782 51.51 88.5382 50.82C88.0282 50.22 87.4882 49.56 86.9782 48.96C86.6482 49.65 86.2882 50.31 85.8982 50.94C84.9382 52.47 83.7382 54.03 82.2982 55.65L78.2182 52.05ZM97.4182 44.79C96.8782 44.85 96.3982 44.91 96.0382 44.91C95.6182 44.97 95.0182 44.97 94.1782 44.97H92.8582V40.17H97.4182V32.7H102.668V56.88H97.4182V44.79ZM130.512 37.29C131.652 37.29 132.672 37.26 133.632 37.2C134.532 37.17 135.342 37.08 136.062 36.96V40.2C135.522 40.38 134.772 40.53 133.842 40.59C132.882 40.71 131.832 40.74 130.692 40.74H127.902V41.52H137.592V45.06H112.782V41.52H122.472V40.74H114.402V32.88H135.432V36.33H119.052V37.29H130.512ZM113.982 49.86H131.112V49.08H113.982V45.96H136.212V52.98H119.082V53.7H136.752V56.91H113.982V49.86ZM140.311 41.82H148.141V37.59H140.461V32.94H153.241V46.32H145.411V50.91H154.081V55.56H140.311V41.82ZM157.711 56.88V50.43C157.261 50.52 156.931 50.55 156.721 50.55C156.451 50.58 156.001 50.58 155.371 50.58H154.711V45.63H156.421C156.841 45.63 157.291 45.63 157.711 45.6V41.67C157.471 41.7 157.291 41.73 157.171 41.73C156.991 41.76 156.811 41.76 156.661 41.76C156.481 41.76 156.331 41.76 156.151 41.73H154.711V36.78H155.641C155.911 36.81 156.181 36.81 156.451 36.81C156.691 36.81 156.961 36.81 157.201 36.78C157.351 36.78 157.531 36.78 157.711 36.75V32.7H162.961V56.88H157.711ZM187.715 32.91V34.5C187.655 35.28 187.415 36.03 186.995 36.81C186.545 37.62 185.975 38.4 185.315 39.15C185.015 39.48 184.715 39.78 184.415 40.08C184.445 40.08 184.505 40.11 184.535 40.11C185.435 40.41 186.365 40.77 187.325 41.19C188.255 41.64 189.245 42.18 190.325 42.78L187.595 46.29C185.765 45.15 183.965 44.28 182.225 43.68C181.445 43.44 180.665 43.26 179.825 43.11C179.255 43.35 178.595 43.62 177.935 43.83C176.975 44.19 175.955 44.49 174.875 44.73C173.795 45.03 172.655 45.27 171.515 45.48C170.315 45.72 169.145 45.9 168.005 46.05L166.115 42.06C170.075 41.4 173.285 40.68 175.805 39.9C178.295 39.15 179.915 38.31 180.635 37.41H167.975V32.91H187.715ZM174.935 56.88V51.96H165.575V47.31H190.385V51.96H180.725V56.88H174.935ZM195.954 43.71C196.254 42.33 196.464 40.8 196.584 39.09C196.704 37.41 196.704 35.46 196.644 33.24H201.564C201.624 36.24 201.594 38.7 201.474 40.65C201.384 41.76 201.234 42.81 201.084 43.8C202.104 45.06 203.064 46.41 203.934 47.82C204.834 49.32 205.614 50.88 206.304 52.5L202.674 55.08C201.894 53.4 201.084 51.81 200.244 50.34C200.004 49.95 199.734 49.53 199.494 49.17C199.254 49.77 198.954 50.37 198.684 50.94C197.844 52.62 196.824 54.21 195.624 55.65L191.784 52.2C192.264 51.6 192.714 50.91 193.194 50.13C193.614 49.41 194.034 48.66 194.394 47.88C194.754 47.1 195.084 46.35 195.384 45.63C195.624 44.91 195.834 44.28 195.954 43.71ZM207.054 56.88V44.52C206.334 44.61 205.614 44.64 204.894 44.64C204.174 44.67 203.664 44.67 203.364 44.67V39.87H207.054V32.7H211.824V56.88H207.054ZM213.294 56.88V32.7H218.034V56.88H213.294ZM232.781 44.55C234.521 44.55 235.871 44.22 236.831 43.56C237.761 42.9 238.241 41.97 238.241 40.77C238.241 39.78 237.761 38.91 236.801 38.13C235.841 37.38 234.491 36.99 232.781 36.99C231.041 36.99 229.691 37.38 228.761 38.13C227.801 38.91 227.321 39.78 227.321 40.77C227.321 41.97 227.801 42.9 228.761 43.56C229.691 44.22 231.041 44.55 232.781 44.55ZM232.781 49.35C231.641 49.35 230.621 49.29 229.691 49.17V51.69H235.391V49.2C234.581 49.29 233.711 49.35 232.781 49.35ZM224.441 46.92C223.601 46.23 223.001 45.39 222.641 44.37C222.221 43.35 222.011 42.18 222.011 40.92C222.011 39.84 222.221 38.76 222.641 37.68C223.061 36.66 223.691 35.73 224.591 34.89C225.491 34.11 226.601 33.45 227.981 32.94C229.301 32.46 230.921 32.19 232.781 32.19C234.611 32.19 236.201 32.46 237.581 32.94C238.901 33.45 240.041 34.11 240.941 34.89C241.811 35.73 242.471 36.66 242.921 37.68C243.341 38.76 243.551 39.84 243.551 40.92C243.551 42.18 243.341 43.35 242.921 44.37C242.501 45.42 241.841 46.32 240.971 47.04C240.851 47.13 240.731 47.22 240.641 47.31V51.69H245.111V56.49H220.301V51.69H224.441V46.92ZM248.371 33.12H253.621V47.91H248.371V33.12ZM248.341 50.58H253.591V56.46H248.341V50.58Z" fill="#0A5FB2"/>
</svg>
