<svg width="225" height="57" viewBox="0 0 225 57" fill="none" xmlns="http://www.w3.org/2000/svg">
<path d="M14.9432 9.02H0.213203V4.55H4.8032V0.949999H10.3532V4.55H14.9432V9.02ZM7.6232 20.57C8.1932 20.57 8.6732 20.33 9.0932 19.82C9.4532 19.34 9.6632 18.56 9.6632 17.48C9.6632 16.46 9.4532 15.68 9.0932 15.14C8.6732 14.66 8.1932 14.39 7.6232 14.39C7.0232 14.39 6.5132 14.66 6.1532 15.14C5.7332 15.68 5.5532 16.46 5.5532 17.48C5.5532 18.56 5.7332 19.34 6.1232 19.82C6.4832 20.33 6.9932 20.57 7.6232 20.57ZM7.6232 25.07C5.3432 25.07 3.6032 24.38 2.4032 23C1.2032 21.65 0.603203 19.82 0.603203 17.48C0.603203 15.2 1.2032 13.34 2.4032 11.96C3.5732 10.58 5.3132 9.89 7.6232 9.89C9.7832 9.89 11.4932 10.58 12.7532 11.96C13.9832 13.34 14.6132 15.2 14.6132 17.48C14.6132 19.82 14.0132 21.65 12.8432 23C11.6432 24.38 9.9032 25.07 7.6232 25.07ZM26.6732 9.71V14.9C26.1932 14.9 25.5632 14.96 24.8432 15.02C24.1832 15.11 23.5532 15.23 22.9832 15.38V25.85H17.4332V1.7H22.9832V10.25C23.5532 10.07 24.1832 9.92 24.8732 9.83C25.6232 9.77 26.2232 9.71 26.6732 9.71ZM35.6338 6.5C35.3338 6.5 35.0338 6.59 34.7638 6.74C34.4638 6.92 34.2238 7.22 34.0138 7.7C33.8038 8.18 33.6538 8.87 33.5338 9.74C33.3838 10.64 33.3238 11.84 33.3238 13.28C33.3238 14.78 33.3838 15.95 33.5338 16.82C33.6538 17.72 33.8038 18.41 34.0138 18.89C34.2238 19.37 34.4638 19.7 34.7638 19.82C35.0338 20 35.3338 20.06 35.6338 20.06C35.9038 20.06 36.1738 20 36.4738 19.82C36.7438 19.7 36.9838 19.37 37.2238 18.89C37.4038 18.41 37.5838 17.72 37.7338 16.82C37.8538 15.95 37.9438 14.78 37.9438 13.28C37.9438 11.84 37.8538 10.64 37.7338 9.74C37.5838 8.87 37.4038 8.18 37.2238 7.7C36.9838 7.22 36.7438 6.92 36.4738 6.74C36.1738 6.59 35.9038 6.5 35.6338 6.5ZM35.6338 1.55C36.7738 1.55 37.7938 1.76 38.7238 2.18C39.6238 2.63 40.3738 3.32 41.0338 4.25C41.6638 5.21 42.1738 6.41 42.5338 7.88C42.8638 9.38 43.0438 11.18 43.0438 13.28C43.0438 15.44 42.8638 17.24 42.5338 18.71C42.1738 20.21 41.6638 21.41 41.0338 22.34C40.3738 23.3 39.6238 23.96 38.7238 24.38C37.7938 24.8 36.7738 25.01 35.6338 25.01C34.4638 25.01 33.4438 24.8 32.5438 24.38C31.6138 23.96 30.8338 23.3 30.2038 22.34C29.5438 21.41 29.0638 20.21 28.7338 18.71C28.3738 17.24 28.2238 15.44 28.2238 13.28C28.2238 11.18 28.3738 9.38 28.7338 7.88C29.0638 6.41 29.5438 5.21 30.2038 4.25C30.8338 3.32 31.6138 2.63 32.5438 2.18C33.4438 1.76 34.4638 1.55 35.6338 1.55ZM45.3238 25.85V1.7H50.8738V25.85H45.3238ZM71.8579 14.15C72.9979 14.15 74.0179 14.12 74.9779 14.06C75.8779 14.03 76.6879 13.94 77.4079 13.82V18.26C76.8679 18.44 76.1179 18.59 75.1879 18.65C74.2279 18.77 73.1779 18.8 72.0379 18.8H55.1179V1.7H76.9579V6.35H60.2179V7.91H76.6579V12.56H60.2179V14.15H71.8579ZM53.6479 25.49V20.99H78.4579V25.49H53.6479ZM102.357 1.94V4.55C102.237 6.05 101.787 7.49 101.067 8.81C100.857 9.17 100.647 9.53 100.437 9.86C100.617 9.98 100.827 10.13 101.037 10.25C102.327 11.15 103.467 12.2 104.427 13.43L100.947 17.12C99.9873 15.95 98.9673 14.93 97.8873 14.09C97.6173 13.88 97.3473 13.7 97.0473 13.49C96.2073 14.18 95.3073 14.78 94.3473 15.29C92.9073 16.13 91.4073 16.76 89.9073 17.21L87.3273 13.16C88.4073 12.8 89.4273 12.38 90.4473 11.9C91.4373 11.42 92.3673 10.91 93.2073 10.34C94.0473 9.8 94.7673 9.2 95.3973 8.6C95.9973 8 96.5073 7.4 96.8673 6.74H88.6773V1.94H102.357ZM105.807 18.41V1.7H111.057V18.41H105.807ZM94.6473 17.84V21.29H111.357V25.79H89.3973V17.84H94.6473ZM114.821 7.7H131.711V6.2H114.971V1.7H136.811V12.2H119.921V13.73H137.261V18.23H128.621V20.99H138.311V25.49H113.501V20.99H123.191V18.23H114.821V7.7ZM158.311 1.79H163.261V3.02H165.931V1.7H171.181V15.26H165.931V13.4H165.841C165.631 13.46 165.451 13.46 165.271 13.46C165.091 13.49 164.881 13.49 164.701 13.49H163.261V14.66H148.531V1.79H153.481V4.46H158.311V1.79ZM163.261 7.37V9.17H165.931V7.28H165.841C165.631 7.34 165.451 7.34 165.271 7.34C165.091 7.37 164.881 7.37 164.701 7.37H163.261ZM153.481 8.51V10.61H158.311V8.51H153.481ZM161.011 22.73C161.971 22.73 162.751 22.7 163.381 22.64C163.981 22.58 164.461 22.49 164.821 22.37C165.181 22.25 165.421 22.1 165.571 21.92C165.691 21.74 165.751 21.53 165.751 21.29C165.751 21.08 165.691 20.87 165.571 20.69C165.421 20.51 165.181 20.36 164.821 20.24C164.461 20.12 163.981 20.03 163.381 19.94C162.751 19.88 161.971 19.85 161.011 19.85C160.021 19.85 159.211 19.88 158.611 19.94C157.981 20.03 157.501 20.12 157.171 20.24C156.811 20.36 156.571 20.51 156.451 20.69C156.331 20.87 156.271 21.08 156.271 21.29C156.271 21.53 156.331 21.74 156.451 21.92C156.571 22.1 156.811 22.25 157.171 22.37C157.501 22.49 157.981 22.58 158.611 22.64C159.211 22.7 160.021 22.73 161.011 22.73ZM161.011 26.75C158.941 26.75 157.231 26.6 155.881 26.36C154.501 26.09 153.391 25.73 152.611 25.25C151.771 24.77 151.201 24.2 150.901 23.51C150.541 22.85 150.391 22.13 150.391 21.29C150.391 20.54 150.541 19.82 150.901 19.16C151.231 18.5 151.801 17.93 152.641 17.42C153.451 16.94 154.531 16.55 155.911 16.25C157.261 15.98 158.971 15.83 161.011 15.83C163.021 15.83 164.701 15.98 166.081 16.25C167.431 16.55 168.511 16.94 169.351 17.42C170.161 17.93 170.761 18.5 171.121 19.16C171.451 19.82 171.631 20.54 171.631 21.29C171.631 22.13 171.451 22.85 171.121 23.51C170.761 24.2 170.191 24.77 169.381 25.25C168.571 25.73 167.491 26.09 166.141 26.36C164.761 26.6 163.051 26.75 161.011 26.75ZM196.744 6.23H191.344V10.1H194.134C194.914 10.1 195.574 10.1 196.084 10.07C196.564 10.07 197.014 10.01 197.404 9.92V14.18C197.044 14.3 196.564 14.39 195.964 14.39C195.334 14.45 194.704 14.45 194.044 14.45H186.094V1.88H196.744V6.23ZM185.044 14.45H174.994V1.88H185.134V6.23H180.094V10.1H185.044V14.45ZM183.154 25.88V20.81H173.794V16.01H198.604V20.81H188.944V25.88H183.154ZM208.254 1.94V4.25C208.314 6.59 208.044 8.69 207.444 10.52C206.814 12.38 205.854 13.97 204.594 15.35L200.124 13.16C201.144 12.14 201.954 11.06 202.494 9.89C203.004 8.75 203.304 7.61 203.364 6.44H200.424V1.94H208.254ZM216.504 1.94V4.25C216.504 5 216.474 5.72 216.444 6.41H217.644C217.944 6.41 218.214 6.41 218.514 6.38C218.784 6.38 218.994 6.32 219.174 6.26V1.7H224.424V15.26H219.174V10.61C218.934 10.73 218.574 10.79 218.124 10.82C217.644 10.88 217.164 10.88 216.684 10.88L215.844 10.91C215.394 12.56 214.644 14.12 213.534 15.56L208.854 13.46C209.754 12.32 210.444 11.15 210.864 9.98C211.254 8.84 211.464 7.67 211.464 6.44H209.124V1.94H216.504ZM214.164 22.73C215.124 22.73 215.904 22.7 216.534 22.64C217.134 22.58 217.644 22.49 218.004 22.37C218.364 22.25 218.604 22.1 218.754 21.92C218.874 21.74 218.964 21.53 218.964 21.29C218.964 21.08 218.874 20.87 218.754 20.69C218.604 20.51 218.364 20.36 218.004 20.24C217.644 20.12 217.134 20.03 216.534 19.94C215.904 19.88 215.124 19.85 214.164 19.85C213.174 19.85 212.364 19.88 211.764 19.94C211.134 20.03 210.654 20.12 210.294 20.24C209.934 20.36 209.694 20.51 209.574 20.69C209.424 20.87 209.364 21.08 209.364 21.29C209.364 21.53 209.424 21.74 209.574 21.92C209.694 22.1 209.934 22.25 210.294 22.37C210.654 22.49 211.134 22.58 211.764 22.64C212.364 22.7 213.174 22.73 214.164 22.73ZM214.164 26.75C212.094 26.75 210.384 26.6 209.034 26.36C207.654 26.09 206.544 25.73 205.734 25.25C204.894 24.77 204.324 24.2 203.994 23.51C203.634 22.85 203.484 22.13 203.484 21.29C203.484 20.54 203.664 19.82 204.024 19.16C204.354 18.5 204.924 17.93 205.764 17.42C206.574 16.94 207.684 16.55 209.064 16.25C210.414 15.98 212.124 15.83 214.164 15.83C216.174 15.83 217.884 15.98 219.264 16.25C220.614 16.55 221.694 16.94 222.534 17.42C223.344 17.93 223.944 18.5 224.304 19.16C224.664 19.82 224.844 20.54 224.844 21.29C224.844 22.13 224.664 22.85 224.334 23.51C223.974 24.2 223.374 24.77 222.564 25.25C221.724 25.73 220.644 26.09 219.294 26.36C217.914 26.6 216.204 26.75 214.164 26.75ZM60.6259 37.29C61.7659 37.29 62.7859 37.26 63.7459 37.2C64.6459 37.17 65.4559 37.08 66.1759 36.96V40.2C65.6359 40.38 64.8859 40.53 63.9559 40.59C62.9959 40.71 61.9459 40.74 60.8059 40.74H58.0159V41.52H67.7059V45.06H42.8959V41.52H52.5859V40.74H44.5159V32.88H65.5459V36.33H49.1659V37.29H60.6259ZM44.0959 49.86H61.2259V49.08H44.0959V45.96H66.3259V52.98H49.1959V53.7H66.8659V56.91H44.0959V49.86ZM70.4254 41.82H78.8554V37.59H70.5754V32.94H83.9554V46.32H75.5254V50.91H84.7954V55.56H70.4254V41.82ZM86.9254 56.85V32.7H92.4754V56.85H86.9254ZM109.469 33.24V35.85C109.469 37.83 109.229 39.75 108.749 41.61C108.269 43.5 107.579 45.3 106.709 47.01C105.809 48.72 104.699 50.31 103.439 51.78C102.149 53.28 100.709 54.57 99.1195 55.71L95.1895 51.96C97.9795 49.86 100.109 47.58 101.549 45.12C102.989 42.72 103.739 40.35 103.829 38.04H96.0895V33.24H109.469ZM112.589 56.85V32.7H118.139V56.85H112.589ZM140.894 33.24V36.15C140.894 38.16 140.744 40.05 140.444 41.82H143.204V32.7H147.974V56.88H143.204V46.56C142.844 46.62 142.424 46.65 141.974 46.65C141.494 46.71 141.014 46.74 140.594 46.74C140.114 46.77 139.724 46.77 139.364 46.77H139.124C139.034 46.98 138.974 47.19 138.884 47.4C137.504 50.58 135.284 53.37 132.224 55.71L128.264 52.11C130.544 50.28 132.344 48.24 133.604 45.99C134.864 43.77 135.524 41.1 135.584 38.04H129.224V33.24H140.894ZM149.444 56.88V32.7H154.184V56.88H149.444ZM164.491 41.34C165.211 41.34 165.871 41.16 166.411 40.8C166.921 40.44 167.191 39.9 167.191 39.18C167.191 38.55 166.921 38.04 166.441 37.62C165.931 37.23 165.271 37.02 164.491 37.02C163.651 37.02 163.021 37.23 162.541 37.62C162.031 38.04 161.791 38.55 161.791 39.18C161.791 39.9 162.031 40.44 162.571 40.8C163.081 41.16 163.711 41.34 164.491 41.34ZM164.491 45.93C162.001 45.93 160.081 45.33 158.731 44.13C157.351 42.93 156.691 41.28 156.691 39.18C156.691 37.14 157.351 35.52 158.731 34.26C160.081 33.03 162.001 32.4 164.491 32.4C166.951 32.4 168.871 33.03 170.251 34.26C171.601 35.52 172.291 37.14 172.291 39.18C172.291 41.28 171.601 42.93 170.251 44.13C168.871 45.33 166.951 45.93 164.491 45.93ZM174.451 45.96V32.7H179.671V45.96H174.451ZM179.671 56.85H158.641V47.1H179.671V56.85ZM174.421 52.8V51.15H163.891V52.8H174.421ZM183.495 33.12H188.745V47.91H183.495V33.12ZM183.465 50.58H188.715V56.46H183.465V50.58Z" fill="#0A5FB2"/>
</svg>
