<svg width="244" height="48" viewBox="0 0 244 48" fill="none" xmlns="http://www.w3.org/2000/svg">
<path d="M7.83598 6.5C7.53598 6.5 7.23598 6.59 6.96598 6.74C6.66598 6.92 6.42598 7.22 6.21598 7.7C6.00598 8.18 5.85598 8.87 5.73598 9.74C5.58598 10.64 5.52598 11.84 5.52598 13.28C5.52598 14.78 5.58598 15.95 5.73598 16.82C5.85598 17.72 6.00598 18.41 6.21598 18.89C6.42598 19.37 6.66598 19.7 6.96598 19.82C7.23598 20 7.53598 20.06 7.83598 20.06C8.10598 20.06 8.37598 20 8.67598 19.82C8.94598 19.7 9.18598 19.37 9.42598 18.89C9.60598 18.41 9.78598 17.72 9.93598 16.82C10.056 15.95 10.146 14.78 10.146 13.28C10.146 11.84 10.056 10.64 9.93598 9.74C9.78598 8.87 9.60598 8.18 9.42598 7.7C9.18598 7.22 8.94598 6.92 8.67598 6.74C8.37598 6.59 8.10598 6.5 7.83598 6.5ZM7.83598 1.55C8.97598 1.55 9.99598 1.76 10.926 2.18C11.826 2.63 12.576 3.32 13.236 4.25C13.866 5.21 14.376 6.41 14.736 7.88C14.886 8.57 15.006 9.32 15.096 10.13H18.426V1.7H23.676V25.88H18.426V14.75C18.006 14.81 17.586 14.84 17.136 14.84C16.656 14.87 16.146 14.9 15.666 14.9C15.516 14.9 15.366 14.93 15.186 14.93C15.126 16.37 14.976 17.63 14.736 18.71C14.376 20.21 13.866 21.41 13.236 22.34C12.576 23.3 11.826 23.96 10.926 24.38C9.99598 24.8 8.97598 25.01 7.83598 25.01C6.66598 25.01 5.64598 24.8 4.74598 24.38C3.81598 23.96 3.03598 23.3 2.40598 22.34C1.74598 21.41 1.26598 20.21 0.935977 18.71C0.575977 17.24 0.425977 15.44 0.425977 13.28C0.425977 11.18 0.575977 9.38 0.935977 7.88C1.26598 6.41 1.74598 5.21 2.40598 4.25C3.03598 3.32 3.81598 2.63 4.74598 2.18C5.64598 1.76 6.66598 1.55 7.83598 1.55ZM42.3095 6.29H39.4895V12.74C39.8495 12.77 40.4195 12.77 41.1695 12.71C41.8895 12.71 42.4895 12.65 42.9695 12.56V16.79C42.4595 16.94 41.8295 17.03 41.0795 17.06C40.2995 17.12 39.6095 17.12 39.0095 17.12H34.5395V1.94H42.3095V6.29ZM33.6695 17.12H26.8295V1.94H33.7295V6.29H31.6295V12.77H33.6695V17.12ZM44.9795 7.07V1.7H50.2295V18.56H44.9795V11.57C44.6195 11.63 44.2295 11.69 43.7495 11.69C43.2395 11.72 42.8195 11.72 42.4895 11.72H41.5295V7.07H44.9795ZM33.3995 18.29V21.44H50.5595V25.79H28.1495V18.29H33.3995ZM60.9325 6.14C64.2325 5.75 66.6625 5.21 68.2525 4.55C69.8125 3.89 70.6525 3.17 70.7725 2.33L70.8325 1.79H76.3225V2.12C76.2625 2.72 76.1425 3.26 75.9625 3.74C77.2825 3.98 78.5425 4.25 79.7725 4.58C81.5125 5.06 83.2225 5.69 84.9625 6.41L83.4025 9.92C81.6625 9.17 79.9825 8.57 78.3325 8.15C76.7125 7.76 74.9425 7.43 72.9625 7.16C72.8125 7.28 72.6325 7.34 72.4525 7.43C70.0825 8.57 66.6025 9.32 62.0125 9.74L60.9325 6.14ZM61.5625 18.86H78.6325V18.08H61.5625V14.96H69.6925V14.03H60.3325V10.58H85.1425V14.03H75.4825V14.96H83.7325V21.98H66.6625V22.7H84.2725V25.91H61.5625V18.86ZM99.4719 6.44C100.552 6.44 101.422 6.44 102.142 6.38C102.802 6.35 103.342 6.29 103.762 6.2C104.122 6.11 104.392 5.99 104.572 5.84C104.722 5.72 104.812 5.54 104.812 5.33C104.812 5.15 104.722 5 104.602 4.85C104.422 4.73 104.152 4.61 103.762 4.52C103.342 4.43 102.802 4.34 102.142 4.28C101.422 4.25 100.552 4.22 99.4719 4.22C98.3619 4.22 97.4619 4.25 96.8019 4.28C96.0819 4.34 95.5419 4.43 95.1519 4.52C94.7319 4.61 94.4619 4.73 94.3419 4.85C94.1919 5 94.1319 5.15 94.1319 5.33C94.1319 5.54 94.1919 5.72 94.3719 5.84C94.4919 5.99 94.7619 6.11 95.1819 6.2C95.5419 6.29 96.0819 6.35 96.8019 6.38C97.4919 6.44 98.3919 6.44 99.4719 6.44ZM99.4719 9.8C97.1919 9.8 95.3619 9.68 93.9519 9.44C92.5119 9.2 91.4019 8.9 90.6219 8.48C89.8119 8.09 89.2719 7.64 89.0019 7.1C88.7019 6.59 88.5519 6.05 88.5519 5.48C88.5519 4.88 88.7019 4.28 89.0019 3.71C89.2719 3.17 89.8119 2.66 90.6219 2.24C91.4019 1.82 92.5119 1.49 93.9519 1.22C95.3619 0.979998 97.1919 0.859998 99.4719 0.859998C101.692 0.859998 103.522 0.979998 104.962 1.22C106.372 1.49 107.482 1.82 108.292 2.24C109.072 2.66 109.642 3.17 109.942 3.71C110.242 4.28 110.392 4.88 110.392 5.48C110.362 6.05 110.212 6.59 109.942 7.1C109.642 7.64 109.072 8.09 108.292 8.48C107.482 8.9 106.372 9.2 104.962 9.44C103.522 9.68 101.692 9.8 99.4719 9.8ZM111.832 14.15H87.0219V10.55H111.832V14.15ZM88.2519 18.86H105.322V18.08H88.2519V14.96H110.422V21.98H93.3519V22.7H110.962V25.91H88.2519V18.86ZM138.941 12.86C140.081 12.86 141.101 12.83 142.061 12.77C142.961 12.74 143.771 12.65 144.491 12.53V16.97C143.951 17.15 143.201 17.3 142.271 17.36C141.311 17.48 140.261 17.51 139.121 17.51H122.711V2.18H143.861V6.83H127.961V12.86H138.941ZM121.211 25.49V20.69H146.021V25.49H121.211ZM147.241 9.65C149.281 8.75 150.781 7.67 151.771 6.47C152.731 5.27 153.211 3.77 153.211 1.94H158.371C158.341 3.23 158.161 4.43 157.891 5.51C158.911 5.9 159.901 6.41 160.831 6.98C161.941 7.73 162.991 8.72 163.951 9.98L160.321 13.22C159.541 12.2 158.611 11.3 157.531 10.52C156.931 10.13 156.331 9.8 155.731 9.5C154.291 11.15 152.401 12.41 150.121 13.25L147.241 9.65ZM165.901 13.01V1.7H171.121V13.01H165.901ZM149.641 18.17H166.021V17.33H149.791V13.91H171.121V21.44H154.741V22.37H171.421V25.79H149.641V18.17ZM174.405 10.82H180.825V6.59H174.555V1.94H185.775V15.32H179.355V19.91H186.465V24.56H174.405V10.82ZM194.295 15.11C193.785 15.23 193.215 15.35 192.615 15.38V25.97H187.845V1.7H192.615V10.28H194.295V1.7H199.035V25.97H194.295V15.11ZM213.936 13.55C215.676 13.55 217.026 13.22 217.986 12.56C218.916 11.9 219.396 10.97 219.396 9.77C219.396 8.78 218.916 7.91 217.956 7.13C216.996 6.38 215.646 5.99 213.936 5.99C212.196 5.99 210.846 6.38 209.916 7.13C208.956 7.91 208.476 8.78 208.476 9.77C208.476 10.97 208.956 11.9 209.916 12.56C210.846 13.22 212.196 13.55 213.936 13.55ZM213.936 18.35C212.796 18.35 211.776 18.29 210.846 18.17V20.69H216.546V18.2C215.736 18.29 214.866 18.35 213.936 18.35ZM205.596 15.92C204.756 15.23 204.156 14.39 203.796 13.37C203.376 12.35 203.166 11.18 203.166 9.92C203.166 8.84 203.376 7.76 203.796 6.68C204.216 5.66 204.846 4.73 205.746 3.89C206.646 3.11 207.756 2.45 209.136 1.94C210.456 1.46 212.076 1.19 213.936 1.19C215.766 1.19 217.356 1.46 218.736 1.94C220.056 2.45 221.196 3.11 222.096 3.89C222.966 4.73 223.626 5.66 224.076 6.68C224.496 7.76 224.706 8.84 224.706 9.92C224.706 11.18 224.496 12.35 224.076 13.37C223.656 14.42 222.996 15.32 222.126 16.04C222.006 16.13 221.886 16.22 221.796 16.31V20.69H226.266V25.49H201.456V20.69H205.596V15.92ZM232.675 20.18H237.925V25.46H232.675V20.18ZM237.505 8.99C237.505 7.88 236.665 6.95 235.285 7.07C233.905 7.19 233.245 7.97 232.885 9.38L228.235 7.97C229.165 4.25 231.535 2.12 234.805 1.91C239.185 1.61 241.765 3.74 242.545 6.59C243.445 9.86 242.425 12.2 240.085 14.45C238.795 15.68 238.045 16.64 237.895 18.44H232.555V17.72C232.555 16.19 233.185 14.75 234.325 13.64C236.845 11.21 237.505 10.37 237.505 8.99ZM38.1664 38.86C38.1664 35.56 39.0264 32.54 40.8264 30.32L43.8264 31.44C42.3464 33.58 41.5664 36.32 41.5664 38.86C41.5664 41.4 42.2464 43.68 43.8264 46.28L40.8264 47.4C39.0264 45.18 38.1664 42.16 38.1664 38.86ZM55.4864 31.16V33C55.4064 34 55.1064 34.98 54.5864 35.9C54.4464 36.16 54.2664 36.42 54.1064 36.68C54.3264 36.84 54.5664 37 54.7864 37.18C55.6264 37.86 56.3264 38.62 56.9064 39.44L54.6064 41.9C54.0464 41.04 53.4464 40.32 52.8264 39.76C52.5464 39.52 52.2464 39.3 51.9064 39.1C51.2864 39.62 50.6064 40.1 49.9064 40.5C48.9064 41.1 47.8864 41.54 46.8864 41.84L45.1664 39.04C46.8464 38.48 48.2464 37.8 49.3864 37.02C50.5064 36.26 51.2864 35.42 51.7264 34.46H46.0664V31.16H55.4864ZM63.3264 36.5V39.8C63.0064 39.8 62.5864 39.84 62.1064 39.88C61.6664 39.94 61.2464 40.02 60.8664 40.12V46.9H57.1664V45.48C56.8464 45.68 56.4064 45.8 55.8264 45.88C55.1864 46 54.4264 46.04 53.5464 46.04H45.4264V43.14H49.6264V41.14H53.2264V43.14H53.9064C54.6264 43.14 55.3264 43.12 55.9664 43.04C56.5264 43 56.9264 42.92 57.1664 42.8V30.8H60.8664V36.86C61.1464 36.78 61.4864 36.7 61.9264 36.62C62.4064 36.54 62.8864 36.5 63.3264 36.5ZM72.6256 39.38C71.3056 39.38 70.1856 39.26 69.2856 39.02C68.3656 38.8 67.6056 38.48 67.0456 38.06C66.4856 37.66 66.0656 37.2 65.8256 36.64C65.5656 36.12 65.4456 35.54 65.4456 34.94C65.4456 34.4 65.5656 33.84 65.8256 33.28C66.0656 32.74 66.4856 32.24 67.0456 31.8C67.6056 31.36 68.3656 31 69.2856 30.72C70.1856 30.44 71.3056 30.3 72.6256 30.3C73.9256 30.3 75.0456 30.44 75.9656 30.72C76.8656 31 77.6056 31.36 78.1856 31.8C78.7456 32.24 79.1456 32.74 79.4256 33.28C79.6656 33.84 79.8056 34.4 79.8056 34.94C79.8056 35.54 79.6656 36.12 79.4256 36.64C79.1456 37.2 78.7456 37.66 78.1856 38.06C77.6056 38.48 76.8656 38.8 75.9656 39.02C75.0456 39.26 73.9256 39.38 72.6256 39.38ZM72.6256 36.4C73.9056 36.4 74.8056 36.26 75.3256 35.94C75.8056 35.64 76.0656 35.28 76.0656 34.84C76.0656 34.42 75.8056 34.06 75.3256 33.74C74.8056 33.44 73.9056 33.28 72.6256 33.28C71.3056 33.28 70.4056 33.44 69.9256 33.76C69.4256 34.08 69.1856 34.44 69.1856 34.84C69.1856 35.28 69.4256 35.64 69.9256 35.94C70.4056 36.26 71.3056 36.4 72.6256 36.4ZM70.5456 46.92V43.64H64.3056V40.54H80.8456V43.64H74.4056V46.92H70.5456ZM82.9786 34.8H94.2386V33.8H83.0786V30.8H97.6386V37.8H86.3786V38.82H97.9386V41.82H92.1786V43.66H98.6386V46.66H82.0986V43.66H88.5586V41.82H82.9786V34.8ZM109.152 30.86V36.54H112.472C112.752 36.54 113.032 36.54 113.312 36.52C113.592 36.52 113.852 36.52 114.132 36.5C114.392 36.5 114.652 36.46 114.892 36.42C115.132 36.4 115.352 36.36 115.572 36.28V39.02C115.132 39.22 114.632 39.32 114.092 39.36C113.532 39.42 112.972 39.44 112.372 39.44H105.452V30.86H109.152ZM117.052 32.34V30.8H120.552V39.64H117.052V35.14C116.892 35.18 116.712 35.22 116.472 35.24C116.232 35.28 115.972 35.3 115.712 35.32C115.432 35.34 115.172 35.34 114.912 35.34C114.632 35.36 114.392 35.36 114.192 35.36L112.752 35.38V32.42H115.172C115.372 32.42 115.592 32.42 115.832 32.4C116.072 32.4 116.292 32.4 116.512 32.38C116.712 32.38 116.892 32.36 117.052 32.34ZM120.552 46.9H106.352V40.4H120.552V46.9ZM117.052 44.2V43.1H109.852V44.2H117.052ZM131.774 31.16V32.9C131.774 33.2 131.754 33.48 131.754 33.78H132.834C133.074 33.78 133.334 33.78 133.614 33.76C133.854 33.76 134.094 33.76 134.334 33.72H134.454V30.8H137.954V46.92H134.454V43.02C134.374 43.02 134.274 43.04 134.194 43.04C133.914 43.08 133.634 43.12 133.334 43.12C133.034 43.16 132.734 43.16 132.454 43.16C132.154 43.18 131.894 43.18 131.694 43.18H129.854V40.5C129.274 41.58 128.554 42.58 127.754 43.52C126.894 44.52 125.934 45.38 124.874 46.14L122.254 43.64C124.114 42.24 125.534 40.72 126.494 39.08C127.454 37.48 127.954 35.9 128.014 34.36H122.854V31.16H131.774ZM131.234 36.98C130.954 38.02 130.574 39.02 130.114 39.98H132.834C133.074 39.98 133.334 39.98 133.614 39.96C133.854 39.96 134.094 39.96 134.334 39.92H134.454V36.82C134.374 36.84 134.274 36.84 134.194 36.84C133.914 36.88 133.634 36.92 133.334 36.92C133.034 36.96 132.734 36.96 132.454 36.96C132.154 36.98 131.894 36.98 131.694 36.98H131.234ZM159.456 30.94V32C159.416 32.52 159.256 33.02 158.976 33.54C158.676 34.08 158.296 34.6 157.856 35.1C157.656 35.32 157.456 35.52 157.256 35.72C157.276 35.72 157.316 35.74 157.336 35.74C157.936 35.94 158.556 36.18 159.196 36.46C159.816 36.76 160.476 37.12 161.196 37.52L159.376 39.86C158.156 39.1 156.956 38.52 155.796 38.12C155.276 37.96 154.756 37.84 154.196 37.74C153.816 37.9 153.376 38.08 152.936 38.22C152.296 38.46 151.616 38.66 150.896 38.82C150.176 39.02 149.416 39.18 148.656 39.32C147.856 39.48 147.076 39.6 146.316 39.7L145.056 37.04C147.696 36.6 149.836 36.12 151.516 35.6C153.176 35.1 154.256 34.54 154.736 33.94H146.296V30.94H159.456ZM150.936 46.92V43.64H144.696V40.54H161.236V43.64H154.796V46.92H150.936ZM164.949 38.14C165.149 37.22 165.289 36.2 165.369 35.06C165.449 33.94 165.449 32.64 165.409 31.16H168.689C168.729 33.16 168.709 34.8 168.629 36.1C168.569 36.84 168.469 37.54 168.369 38.2C169.049 39.04 169.689 39.94 170.269 40.88C170.869 41.88 171.389 42.92 171.849 44L169.429 45.72C168.909 44.6 168.369 43.54 167.809 42.56C167.649 42.3 167.469 42.02 167.309 41.78C167.149 42.18 166.949 42.58 166.769 42.96C166.209 44.08 165.529 45.14 164.729 46.1L162.169 43.8C162.489 43.4 162.789 42.94 163.109 42.42C163.389 41.94 163.669 41.44 163.909 40.92C164.149 40.4 164.369 39.9 164.569 39.42C164.729 38.94 164.869 38.52 164.949 38.14ZM172.349 46.92V38.68C171.869 38.74 171.389 38.76 170.909 38.76C170.429 38.78 170.089 38.78 169.889 38.78V35.58H172.349V30.8H175.529V46.92H172.349ZM176.509 46.92V30.8H179.669V46.92H176.509ZM189.501 38.7C190.661 38.7 191.561 38.48 192.201 38.04C192.821 37.6 193.141 36.98 193.141 36.18C193.141 35.52 192.821 34.94 192.181 34.42C191.541 33.92 190.641 33.66 189.501 33.66C188.341 33.66 187.441 33.92 186.821 34.42C186.181 34.94 185.861 35.52 185.861 36.18C185.861 36.98 186.181 37.6 186.821 38.04C187.441 38.48 188.341 38.7 189.501 38.7ZM189.501 41.9C188.741 41.9 188.061 41.86 187.441 41.78V43.46H191.241V41.8C190.701 41.86 190.121 41.9 189.501 41.9ZM183.941 40.28C183.381 39.82 182.981 39.26 182.741 38.58C182.461 37.9 182.321 37.12 182.321 36.28C182.321 35.56 182.461 34.84 182.741 34.12C183.021 33.44 183.441 32.82 184.041 32.26C184.641 31.74 185.381 31.3 186.301 30.96C187.181 30.64 188.261 30.46 189.501 30.46C190.721 30.46 191.781 30.64 192.701 30.96C193.581 31.3 194.341 31.74 194.941 32.26C195.521 32.82 195.961 33.44 196.261 34.12C196.541 34.84 196.681 35.56 196.681 36.28C196.681 37.12 196.541 37.9 196.261 38.58C195.981 39.28 195.541 39.88 194.961 40.36C194.881 40.42 194.801 40.48 194.741 40.54V43.46H197.721V46.66H181.181V43.46H183.941V40.28ZM204.914 38.86C204.914 42.16 204.054 45.18 202.254 47.4L199.254 46.28C200.834 43.68 201.514 41.4 201.514 38.86C201.514 36.32 200.734 33.58 199.254 31.44L202.254 30.32C204.054 32.54 204.914 35.56 204.914 38.86Z" fill="#0A5FB2"/>
</svg>
